PathFileType	4	(X/Y/Z)	C:/Users/alexw/Dropbox/ABI/BIOMENG 771 Files/BIOMENG_771/KinematicsLab/Left.trc	
DataRate	CameraRate	NumFrames	NumMarkers	Units	OrigDataRate	OrigDataStartFrame	OrigNumFrames	
120.00	120.00	30	8	mm	120.00	187	1491	
Frame#	Time	RAsis			LAsis			RPsis			LPsis			LThighSuperior			LThighInferior			LThighLateral			LPatella			
		X1	Y1	Z1	X2	Y2	Z2	X3	Y3	Z3	X4	Y4	Z4	X5	Y5	Z5	X6	Y6	Z6	X7	Y7	Z7	X8	Y8	Z8	

187	1.550	-640.31964	120.73634	996.92499	-368.02036	135.25697	1009.37140	-521.47943	340.09531	994.06421	-460.61356	343.82306	994.10931	-321.46286	111.99906	858.92456	-359.77383	-45.11430	666.03503	-396.14758	-19.56250	783.36536	-414.67096	-109.81953	585.54462 
188	1.558	-640.30579	120.23026	996.62494	-368.03094	134.79558	1009.21692	-521.58612	339.83774	994.74304	-460.74734	343.60925	994.88196	-321.23862	113.27074	857.68689	-359.56335	-41.51258	662.66052	-395.26791	-17.67397	780.42340	-414.47903	-105.10313	581.21069 
189	1.567	-640.24860	119.71583	996.36401	-368.01889	134.34830	1009.13208	-521.84680	339.42709	995.43359	-460.89023	343.35410	995.58716	-321.11392	114.37766	856.52820	-359.45828	-37.95569	659.33862	-394.24014	-15.81567	777.68951	-414.26517	-100.56751	577.27954 
190	1.575	-640.12793	119.13154	995.97772	-367.98788	133.93954	1008.98761	-522.07977	339.17444	996.23273	-461.21628	343.16983	996.30579	-321.16763	115.49567	855.34088	-359.31717	-34.44060	656.32300	-393.32352	-14.03941	775.19958	-414.18826	-96.01392	573.53070 
191	1.583	-640.09314	118.61207	995.84076	-367.93216	133.69318	1008.85815	-522.44800	339.00171	997.13782	-461.54675	342.94861	997.06989	-321.10870	116.80783	854.24426	-359.11606	-30.80715	653.45105	-392.70111	-12.11651	772.51526	-413.97076	-91.51098	569.90143 
192	1.592	-640.00513	118.21160	995.59528	-367.80212	133.37988	1008.77930	-522.76697	338.73813	997.77997	-461.83569	342.77554	997.83557	-321.12219	118.04182	853.24866	-358.80081	-27.24130	650.57062	-391.93988	-9.99469	769.79620	-413.77438	-87.07139	566.49292 
193	1.600	-639.84369	117.83116	995.44446	-367.60071	133.26518	1008.68158	-522.99359	338.54819	998.34387	-462.15991	342.71371	998.49841	-320.92889	119.56360	852.20050	-358.36255	-23.43117	647.88153	-391.24548	-7.74569	767.06293	-413.27386	-82.87317	563.56305 
194	1.608	-639.62402	117.55396	995.35992	-367.36575	133.32353	1008.53241	-523.28143	338.47208	998.98273	-462.49631	342.71072	999.11328	-320.57776	121.02486	851.16791	-357.78271	-19.73355	645.34021	-390.64981	-5.25855	764.36523	-412.78778	-78.38642	560.48071 
195	1.617	-639.48572	117.30678	995.29932	-367.13181	133.41049	1008.47076	-523.70404	338.35510	999.57782	-462.91327	342.68561	999.71130	-320.10876	122.59446	850.23010	-357.19971	-16.06564	642.99756	-389.99411	-3.02034	761.80768	-412.22745	-74.21398	558.10028 
196	1.625	-639.36981	117.10139	995.24237	-366.93326	133.57845	1008.46204	-524.21027	338.21329	1000.09869	-463.34045	342.73911	1000.27460	-319.89688	124.21941	849.36139	-356.60394	-12.62122	640.80927	-389.41852	-0.56312	759.55499	-411.47662	-69.99445	555.16327 
197	1.633	-639.21228	116.85896	995.04962	-366.75552	133.83595	1008.44757	-524.71838	338.10440	1000.54248	-463.76053	342.78537	1000.80060	-319.72293	125.94643	848.50452	-356.05167	-9.15141	638.78821	-389.03372	1.56752	757.75549	-410.80014	-65.93175	552.80084 
198	1.642	-639.15417	116.69138	994.87671	-366.63074	134.11127	1008.38013	-525.17719	338.06296	1001.00421	-464.22162	342.88083	1001.30127	-319.48291	127.48037	847.72614	-355.45459	-5.72812	636.80310	-388.77301	3.55820	756.10901	-410.11014	-62.22626	550.37842 
199	1.650	-639.03693	116.40438	994.73358	-366.53104	134.36568	1008.27753	-525.57233	338.05634	1001.39801	-464.64539	342.94092	1001.75952	-319.30737	129.37463	846.89825	-354.87729	-2.74192	634.99365	-388.45834	5.61902	754.82794	-409.43741	-58.64898	548.24445 
200	1.658	-638.93146	116.13870	994.59027	-366.39923	134.68307	1008.09528	-525.94824	338.05133	1001.69568	-465.21170	343.06207	1002.10675	-319.03149	130.81107	846.19159	-354.39783	0.38711	633.24481	-387.76663	7.62554	753.70673	-408.72366	-55.27827	546.25366 
201	1.667	-638.83716	115.80733	994.50928	-366.27393	135.07523	1007.86249	-526.50543	338.02402	1001.86414	-465.86142	343.19547	1002.34741	-318.94293	132.27786	845.32764	-353.74835	3.24262	631.56055	-387.53235	9.55440	752.16870	-408.06226	-52.18740	544.34271 
202	1.675	-638.68250	115.48094	994.19568	-366.20422	135.36894	1007.66431	-527.06073	338.01556	1001.96204	-466.44650	343.32916	1002.52643	-318.87054	133.53435	844.60809	-353.23492	5.86762	629.92664	-387.11484	11.26946	750.80481	-407.38617	-49.26861	542.50275 
203	1.683	-638.64526	115.12292	993.74188	-366.19720	135.54271	1007.44861	-527.64453	337.92471	1002.00977	-466.89087	343.36700	1002.62445	-318.85715	134.53825	843.84265	-352.59973	8.35136	628.41010	-386.68768	12.67432	749.28088	-406.74271	-46.54076	540.67450 
204	1.692	-638.67493	114.88555	993.32770	-366.19815	135.80664	1007.13867	-528.20844	337.91342	1001.96393	-467.41122	343.38788	1002.64966	-318.85074	135.67471	842.94678	-352.03036	10.64154	626.84839	-386.31943	14.26862	747.61267	-406.00018	-44.18594	538.92468 
205	1.700	-638.64368	114.58993	992.98907	-366.28314	135.97137	1006.77167	-528.70923	337.92834	1001.86169	-468.01239	343.35632	1002.53601	-318.72653	136.79399	842.22437	-351.21503	12.82894	625.32971	-385.80716	15.66948	745.96240	-405.09958	-41.75579	537.28668 
206	1.708	-638.70319	114.34204	992.68774	-366.29602	136.01378	1006.47491	-529.10034	337.86487	1001.68634	-468.52396	343.18585	1002.30920	-318.53513	137.90985	841.27783	-350.30679	15.09556	623.79456	-385.11676	16.96454	744.48883	-403.96118	-39.43330	535.77490 
207	1.717	-638.82544	114.15846	992.39862	-366.37024	136.14058	1006.19067	-529.60162	337.68475	1001.41083	-469.11050	342.96811	1002.02264	-318.35428	138.97429	840.40637	-349.41968	17.21770	622.23669	-384.21036	18.19286	742.86993	-402.62173	-37.05869	534.13635 
208	1.725	-639.06561	114.02010	992.17017	-366.56805	136.19070	1005.89087	-530.03406	337.62567	1001.08429	-469.51102	342.82068	1001.73462	-318.26672	140.15332	839.42157	-348.34418	19.47187	620.69934	-383.19736	19.42844	741.40552	-401.35226	-34.66219	532.47742 
209	1.733	-639.35913	113.87328	991.97052	-366.80753	136.13156	1005.61792	-530.42230	337.49631	1000.81812	-469.82547	342.62543	1001.48199	-318.17914	141.36075	838.47479	-347.30292	21.92189	619.07788	-382.14182	20.74231	739.84448	-399.98831	-32.18998	530.71771 
210	1.742	-639.64288	113.88718	991.67810	-366.99371	135.97639	1005.36780	-530.75952	337.30887	1000.51440	-470.08514	342.42615	1001.26727	-318.06961	142.31529	837.71613	-346.32193	24.35860	617.38892	-380.82675	21.84420	738.24371	-398.50458	-29.75376	529.08636 
211	1.750	-639.94305	113.81126	991.53339	-367.30627	135.81543	1004.96887	-530.97699	337.16949	1000.24664	-470.40845	342.18536	1000.98193	-317.89987	143.37106	836.82764	-345.33313	26.87872	615.54401	-379.40768	23.10412	736.48590	-397.37885	-26.92548	527.34467 
212	1.758	-640.30786	113.74853	991.48444	-367.60797	135.62003	1004.51227	-531.10962	336.95786	1000.00311	-470.62988	341.93842	1000.66162	-318.01505	144.16101	836.11285	-344.50171	29.60065	613.73163	-377.90466	24.19198	734.80322	-396.22406	-23.95422	525.74286 
213	1.767	-640.73932	113.65263	991.41187	-367.96542	135.32083	1004.08624	-531.33313	336.65176	999.82666	-470.73865	341.62503	1000.44464	-318.04184	145.09529	835.33661	-343.79037	32.16417	612.06537	-376.28107	25.30766	733.06012	-395.15179	-21.17838	523.89111 
214	1.775	-641.19629	113.55022	991.32678	-368.40921	134.94061	1003.68188	-531.48041	336.38538	999.59198	-470.86734	341.30222	1000.21002	-318.19977	145.78108	834.84167	-343.33258	34.93085	610.28961	-374.83871	26.37895	731.29004	-394.28885	-18.21441	522.23212 
215	1.783	-641.62061	113.32758	991.11066	-368.83536	134.45857	1003.28784	-531.64929	336.06528	999.44275	-470.98422	340.93692	1000.01685	-318.35458	146.38173	834.08032	-342.92410	37.80858	608.44373	-373.48590	27.62411	729.36841	-393.54681	-15.42270	520.56781 
216	1.792	-642.02338	113.06618	990.82684	-369.25339	133.85675	1002.85815	-531.68066	335.74960	999.38080	-471.08142	340.52008	999.82843	-318.63718	146.93915	833.40845	-342.70621	40.59327	606.63165	-372.28992	28.98872	727.44604	-393.16202	-12.49163	518.74115 
